<svg xmlns="http://www.w3.org/2000/svg" viewBox="0 0 1080 1080" width="1080" height="1080">
	<style>
		tspan { white-space:pre }
		.shp0 { fill: #ffffff } 
	</style>
	<path id="Shape 1" class="shp0" d="M98 156L982 156C993.06 156 1002 164.94 1002 176L1002 294C1002 305.06 993.06 314 982 314L98 314C86.94 314 78 305.06 78 294L78 176C78 164.94 86.94 156 98 156Z" />
	<path id="Shape 1 copy" class="shp0" d="M98 356L982 356C993.06 356 1002 364.94 1002 376L1002 494C1002 505.06 993.06 514 982 514L98 514C86.94 514 78 505.06 78 494L78 376C78 364.94 86.94 356 98 356Z" />
	<path id="Shape 1 copy 2" class="shp0" d="M98 566L982 566C993.06 566 1002 574.94 1002 586L1002 704C1002 715.06 993.06 724 982 724L98 724C86.94 724 78 715.06 78 704L78 586C78 574.94 86.94 566 98 566Z" />
	<path id="Shape 1 copy 3" class="shp0" d="M98 766L982 766C993.06 766 1002 774.94 1002 786L1002 904C1002 915.06 993.06 924 982 924L98 924C86.94 924 78 915.06 78 904L78 786C78 774.94 86.94 766 98 766Z" />
</svg>